<svg width="72" height="72" viewBox="0 0 72 72" fill="none" xmlns="http://www.w3.org/2000/svg">
<path fill-rule="evenodd" clip-rule="evenodd" d="M56.4 20.0653C59.3823 20.0653 61.8 17.6873 61.8 14.7539C61.8 11.8204 59.3823 9.44238 56.4 9.44238C53.4177 9.44238 51 11.8204 51 14.7539C51 17.6873 53.4177 20.0653 56.4 20.0653Z" fill="#7F265B"/>
<path fill-rule="evenodd" clip-rule="evenodd" d="M16.2 20.0653C19.1824 20.0653 21.6 17.6873 21.6 14.7539C21.6 11.8204 19.1824 9.44238 16.2 9.44238C13.2177 9.44238 10.8 11.8204 10.8 14.7539C10.8 17.6873 13.2177 20.0653 16.2 20.0653Z" fill="#7F265B"/>
<path fill-rule="evenodd" clip-rule="evenodd" d="M16.2 62.5575C19.1824 62.5575 21.6 60.1795 21.6 57.246C21.6 54.3126 19.1824 51.9346 16.2 51.9346C13.2177 51.9346 10.8 54.3126 10.8 57.246C10.8 60.1795 13.2177 62.5575 16.2 62.5575Z" fill="#7F265B"/>
<path fill-rule="evenodd" clip-rule="evenodd" d="M56.4 62.5575C59.3823 62.5575 61.8 60.1795 61.8 57.246C61.8 54.3126 59.3823 51.9346 56.4 51.9346C53.4177 51.9346 51 54.3126 51 57.246C51 60.1795 53.4177 62.5575 56.4 62.5575Z" fill="#7F265B"/>
<rect y="32.459" width="72" height="7.08197" rx="3.54098" fill="#555555"/>
<rect x="39.6001" y="42.4922" width="29.5082" height="7.2" rx="3.6" transform="rotate(90 39.6001 42.4922)" fill="#555555"/>
<rect x="39.6001" width="29.5082" height="7.2" rx="3.6" transform="rotate(90 39.6001 0)" fill="#555555"/>
</svg>
