<svg width="589" height="568" viewBox="0 0 589 568" fill="none" xmlns="http://www.w3.org/2000/svg">
<path opacity="0.4" d="M335.43 255.344C328.204 251.178 323.019 251.093 319.874 255.004C316.644 258.914 315.114 265.545 315.114 274.812V324.969C315.114 334.49 314.264 342.396 312.478 348.687C310.693 355.233 307.718 359.824 303.638 362.544C299.643 365.349 294.202 366.03 287.317 364.754C280.602 363.564 272.186 359.994 262.155 354.213L257.395 351.408V311.877L263.431 315.362C270.656 319.528 275.416 320.038 277.796 317.063C280.347 314.087 281.622 307.966 281.622 298.7V254.494C281.622 242.932 282.727 233.836 285.022 227.205C287.232 220.489 291.737 216.238 298.453 214.368C291.737 204.762 287.232 195.24 285.022 185.974C282.812 176.708 281.707 166.336 281.707 154.774V110.568C281.707 101.302 280.432 93.6507 277.881 87.7849C275.501 82.0041 270.656 76.9884 263.516 72.8228L257.48 69.3373V29.8066L262.24 32.612C272.271 38.3929 280.687 44.5988 287.402 51.1447C294.287 57.7756 299.728 64.7466 303.723 72.2277C307.888 79.7088 310.863 87.6999 312.563 96.2861C314.349 104.617 315.199 113.544 315.199 123.065V173.222C315.199 182.488 316.814 190.99 319.959 198.556C323.189 206.122 328.374 212.073 335.515 216.153L335.43 255.344Z" fill="url(#paint0_linear_489_436)"/>
<path opacity="0.4" d="M153.349 110.058C160.574 114.224 165.759 114.309 168.905 110.398C172.135 106.488 173.665 99.8568 173.665 90.5905V40.4334C173.665 30.912 174.515 23.0059 176.3 16.715C178.085 10.169 180.975 5.57839 184.971 2.77299C189.136 0.0526013 194.576 -0.627496 201.291 0.562674C208.177 1.83786 216.677 5.40837 226.708 11.2742L231.468 14.0796V53.6102L225.433 50.1247C218.207 45.9591 213.362 45.3641 210.812 48.3395C208.432 51.3999 207.242 57.5208 207.242 66.8721V111.078C207.242 122.555 206.137 131.736 203.842 138.367C201.631 145.083 197.126 149.334 190.411 151.204C197.126 160.811 201.631 170.332 203.842 179.598C206.052 188.865 207.157 199.236 207.157 210.798V255.004C207.157 264.27 208.347 271.836 210.727 277.702C213.277 283.568 218.122 288.669 225.348 292.749L231.383 296.235V335.766L226.623 332.96C216.592 327.179 208.092 320.888 201.206 314.342C194.491 307.797 189.051 300.826 184.885 293.259C180.89 285.863 178 277.872 176.3 269.371C174.515 261.04 173.665 252.114 173.665 242.592V192.435C173.665 183.169 172.05 174.668 168.905 167.101C165.674 159.535 160.489 153.585 153.349 149.504V110.058Z" fill="url(#paint1_linear_489_436)"/>
<path opacity="0.15" d="M359.996 10.9346L539.442 114.564L539.357 544.811L359.911 441.266L359.996 10.9346Z" fill="url(#paint2_linear_489_436)"/>
<path d="M326.249 67.2969L469.058 149.674V189.204L326.249 106.828V67.2969Z" fill="#587298"/>
<path opacity="0.2" d="M383.373 250.328L518.701 328.454V448.066L383.373 369.94V250.328Z" fill="url(#paint3_linear_489_436)"/>
<path opacity="0.15" d="M382.012 158.601L519.38 237.917V251.434L382.012 172.118V158.601Z" fill="white"/>
<path opacity="0.15" d="M382.012 185.804L500.764 254.323V267.84L382.012 199.321V185.804Z" fill="white"/>
<path opacity="0.15" d="M382.012 212.668L482.828 270.816V284.333L382.012 226.185V212.668Z" fill="white"/>
<path opacity="0.2" d="M359.996 10.9346L539.442 114.564V172.203L359.911 68.6578L359.996 10.9346Z" fill="url(#paint4_linear_489_436)"/>
<path opacity="0.2" d="M404.794 66.0224C404.794 74.7786 399.693 78.8592 393.403 75.2037C387.113 71.5482 382.012 61.6017 382.012 52.8455C382.012 44.0892 387.113 40.0087 393.403 43.6642C399.693 47.3197 404.794 57.3511 404.794 66.0224Z" fill="white"/>
<path opacity="0.15" d="M36.6371 142.703L589 461.499L588.915 892L36.5521 573.205L36.6371 142.703Z" fill="url(#paint5_linear_489_436)"/>
<path d="M0 248.798L142.723 331.175V370.705L0 288.414V248.798Z" fill="#EA8C4F"/>
<path opacity="0.15" d="M73.8689 357.443L390.768 540.389V553.906L73.8689 370.96V357.443Z" fill="white"/>
<path opacity="0.15" d="M73.8689 384.647L347.245 542.43V555.947L73.8689 398.164V384.647Z" fill="white"/>
<path opacity="0.15" d="M73.8689 411.597L306.528 545.916V559.433L73.8689 425.114V411.597Z" fill="white"/>
<path opacity="0.2" d="M22.0159 425.028L253.995 558.922V678.534L22.0159 544.555V425.028Z" fill="url(#paint6_linear_489_436)"/>
<path opacity="0.15" d="M45.3922 469.149L229.683 575.5V589.017L45.3922 482.666V469.149Z" fill="white"/>
<path opacity="0.15" d="M45.3922 496.354L192.961 581.536V595.053L45.3922 509.785V496.354Z" fill="white"/>
<path opacity="0.2" d="M36.6368 142.703L588.235 461.159V519.477L36.6368 201.106V142.703Z" fill="url(#paint7_linear_489_436)"/>
<path opacity="0.2" d="M96.7357 206.548C96.7357 215.304 91.6354 219.385 85.345 215.729C79.0547 212.074 73.9543 202.127 73.9543 193.371C73.9543 184.615 79.0547 180.534 85.345 184.19C91.6354 187.845 96.7357 197.877 96.7357 206.548Z" fill="white"/>
<defs>
<linearGradient id="paint0_linear_489_436" x1="384.36" y1="17.8757" x2="245.12" y2="259.238" gradientUnits="userSpaceOnUse">
<stop stop-color="#424C57"/>
<stop offset="0.903" stop-color="white" stop-opacity="0"/>
</linearGradient>
<linearGradient id="paint1_linear_489_436" x1="303.984" y1="1.51234" x2="164.727" y2="242.845" gradientUnits="userSpaceOnUse">
<stop stop-color="#414B56"/>
<stop offset="0.903" stop-color="white" stop-opacity="0"/>
</linearGradient>
<linearGradient id="paint2_linear_489_436" x1="542.816" y1="116.519" x2="371.208" y2="413.807" gradientUnits="userSpaceOnUse">
<stop stop-color="white"/>
<stop offset="1" stop-color="white" stop-opacity="0"/>
</linearGradient>
<linearGradient id="paint3_linear_489_436" x1="476.95" y1="304.285" x2="429.254" y2="386.909" gradientUnits="userSpaceOnUse">
<stop stop-color="white"/>
<stop offset="1" stop-color="white" stop-opacity="0"/>
</linearGradient>
<linearGradient id="paint4_linear_489_436" x1="421.521" y1="11.8285" x2="476.243" y2="166.739" gradientUnits="userSpaceOnUse">
<stop stop-color="#424C58"/>
<stop offset="1" stop-color="white" stop-opacity="0"/>
</linearGradient>
<linearGradient id="paint5_linear_489_436" x1="405.97" y1="355.856" x2="315.072" y2="513.362" gradientUnits="userSpaceOnUse">
<stop stop-color="white"/>
<stop offset="1" stop-color="white" stop-opacity="0"/>
</linearGradient>
<linearGradient id="paint6_linear_489_436" x1="163.887" y1="506.882" x2="116.192" y2="589.507" gradientUnits="userSpaceOnUse">
<stop stop-color="#434D58"/>
<stop offset="1" stop-color="white" stop-opacity="0"/>
</linearGradient>
<linearGradient id="paint7_linear_489_436" x1="173.501" y1="95.7139" x2="382.973" y2="450.519" gradientUnits="userSpaceOnUse">
<stop stop-color="#546F94"/>
<stop offset="1" stop-color="white" stop-opacity="0"/>
</linearGradient>
</defs>
</svg>
