<svg width="114" height="94" viewBox="0 0 114 94" fill="none" xmlns="http://www.w3.org/2000/svg">
<ellipse cx="20.1793" cy="3.38433" rx="2.5" ry="2.62469" transform="rotate(14.4844 20.1793 3.38433)" fill="#2563FF"/>
<ellipse cx="9.22817" cy="45.7769" rx="2.5" ry="2.62469" transform="rotate(14.4844 9.22817 45.7769)" fill="#2563FF"/>
<ellipse cx="56.381" cy="12.7359" rx="2.5" ry="2.62469" transform="rotate(14.4844 56.381 12.7359)" fill="#2563FF"/>
<ellipse cx="45.4297" cy="55.1294" rx="2.5" ry="2.62469" transform="rotate(14.4844 45.4297 55.1294)" fill="#2563FF"/>
<ellipse cx="92.5825" cy="22.0884" rx="2.5" ry="2.62469" transform="rotate(14.4844 92.5825 22.0884)" fill="#2563FF"/>
<ellipse cx="81.6314" cy="64.481" rx="2.5" ry="2.62469" transform="rotate(14.4844 81.6314 64.481)" fill="#2563FF"/>
<ellipse cx="14.7038" cy="24.5806" rx="2.5" ry="2.62469" transform="rotate(14.4844 14.7038 24.5806)" fill="#2563FF"/>
<ellipse cx="3.75259" cy="66.9732" rx="2.5" ry="2.62469" transform="rotate(14.4844 3.75259 66.9732)" fill="#2563FF"/>
<ellipse cx="50.9054" cy="33.9322" rx="2.5" ry="2.62469" transform="rotate(14.4844 50.9054 33.9322)" fill="#2563FF"/>
<ellipse cx="39.9542" cy="76.3248" rx="2.5" ry="2.62469" transform="rotate(14.4844 39.9542 76.3248)" fill="#2563FF"/>
<ellipse cx="87.107" cy="43.2847" rx="2.5" ry="2.62469" transform="rotate(14.4844 87.107 43.2847)" fill="#2563FF"/>
<ellipse cx="76.1558" cy="85.6773" rx="2.5" ry="2.62469" transform="rotate(14.4844 76.1558 85.6773)" fill="#2563FF"/>
<ellipse cx="38.2802" cy="8.06011" rx="2.5" ry="2.62469" transform="rotate(14.4844 38.2802 8.06011)" fill="#2563FF"/>
<ellipse cx="27.3289" cy="50.4527" rx="2.5" ry="2.62469" transform="rotate(14.4844 27.3289 50.4527)" fill="#2563FF"/>
<ellipse cx="74.4817" cy="17.4117" rx="2.5" ry="2.62469" transform="rotate(14.4844 74.4817 17.4117)" fill="#2563FF"/>
<ellipse cx="63.5305" cy="59.8052" rx="2.5" ry="2.62469" transform="rotate(14.4844 63.5305 59.8052)" fill="#2563FF"/>
<ellipse cx="110.683" cy="26.7642" rx="2.5" ry="2.62469" transform="rotate(14.4844 110.683 26.7642)" fill="#2563FF"/>
<ellipse cx="99.7322" cy="69.1568" rx="2.5" ry="2.62469" transform="rotate(14.4844 99.7322 69.1568)" fill="#2563FF"/>
<ellipse cx="32.8046" cy="29.2564" rx="2.5" ry="2.62469" transform="rotate(14.4844 32.8046 29.2564)" fill="#2563FF"/>
<ellipse cx="21.8534" cy="71.649" rx="2.5" ry="2.62469" transform="rotate(14.4844 21.8534 71.649)" fill="#2563FF"/>
<ellipse cx="69.0061" cy="38.608" rx="2.5" ry="2.62469" transform="rotate(14.4844 69.0061 38.608)" fill="#2563FF"/>
<ellipse cx="58.0551" cy="81.0005" rx="2.5" ry="2.62469" transform="rotate(14.4844 58.0551 81.0005)" fill="#2563FF"/>
<ellipse cx="105.208" cy="47.9605" rx="2.5" ry="2.62469" transform="rotate(14.4844 105.208 47.9605)" fill="#2563FF"/>
<ellipse cx="94.2566" cy="90.3531" rx="2.5" ry="2.62469" transform="rotate(14.4844 94.2566 90.3531)" fill="#2563FF"/>
</svg>
