<svg width="100" height="73" viewBox="0 0 100 73" fill="none" xmlns="http://www.w3.org/2000/svg">
<ellipse cx="2.53392" cy="3.87224" rx="2.5" ry="2.62469" transform="rotate(-0.745038 2.53392 3.87224)" fill="#EC1AFF"/>
<ellipse cx="3.10325" cy="47.6525" rx="2.5" ry="2.62469" transform="rotate(-0.745038 3.10325 47.6525)" fill="#EC1AFF"/>
<ellipse cx="39.9208" cy="3.38591" rx="2.5" ry="2.62469" transform="rotate(-0.745038 39.9208 3.38591)" fill="#EC1AFF"/>
<ellipse cx="40.4901" cy="47.1672" rx="2.5" ry="2.62469" transform="rotate(-0.745038 40.4901 47.1672)" fill="#EC1AFF"/>
<ellipse cx="77.3077" cy="2.89958" rx="2.5" ry="2.62469" transform="rotate(-0.745038 77.3077 2.89958)" fill="#EC1AFF"/>
<ellipse cx="77.877" cy="46.6808" rx="2.5" ry="2.62469" transform="rotate(-0.745038 77.877 46.6808)" fill="#EC1AFF"/>
<ellipse cx="2.81859" cy="25.7629" rx="2.5" ry="2.62469" transform="rotate(-0.745038 2.81859 25.7629)" fill="#EC1AFF"/>
<ellipse cx="3.38792" cy="69.5431" rx="2.5" ry="2.62469" transform="rotate(-0.745038 3.38792 69.5431)" fill="#EC1AFF"/>
<ellipse cx="40.2054" cy="25.2765" rx="2.5" ry="2.62469" transform="rotate(-0.745038 40.2054 25.2765)" fill="#EC1AFF"/>
<ellipse cx="40.7748" cy="69.0568" rx="2.5" ry="2.62469" transform="rotate(-0.745038 40.7748 69.0568)" fill="#EC1AFF"/>
<ellipse cx="77.5923" cy="24.7902" rx="2.5" ry="2.62469" transform="rotate(-0.745038 77.5923 24.7902)" fill="#EC1AFF"/>
<ellipse cx="78.1616" cy="68.5705" rx="2.5" ry="2.62469" transform="rotate(-0.745038 78.1616 68.5705)" fill="#EC1AFF"/>
<ellipse cx="21.2273" cy="3.62907" rx="2.5" ry="2.62469" transform="rotate(-0.745038 21.2273 3.62907)" fill="#EC1AFF"/>
<ellipse cx="21.7967" cy="47.4103" rx="2.5" ry="2.62469" transform="rotate(-0.745038 21.7967 47.4103)" fill="#EC1AFF"/>
<ellipse cx="58.6142" cy="3.14274" rx="2.5" ry="2.62469" transform="rotate(-0.745038 58.6142 3.14274)" fill="#EC1AFF"/>
<ellipse cx="59.1835" cy="46.924" rx="2.5" ry="2.62469" transform="rotate(-0.745038 59.1835 46.924)" fill="#EC1AFF"/>
<ellipse cx="96.0011" cy="2.65642" rx="2.5" ry="2.62469" transform="rotate(-0.745038 96.0011 2.65642)" fill="#EC1AFF"/>
<ellipse cx="96.5704" cy="46.4377" rx="2.5" ry="2.62469" transform="rotate(-0.745038 96.5704 46.4377)" fill="#EC1AFF"/>
<ellipse cx="21.512" cy="25.5197" rx="2.5" ry="2.62469" transform="rotate(-0.745038 21.512 25.5197)" fill="#EC1AFF"/>
<ellipse cx="22.0813" cy="69.3" rx="2.5" ry="2.62469" transform="rotate(-0.745038 22.0813 69.3)" fill="#EC1AFF"/>
<ellipse cx="58.8988" cy="25.0334" rx="2.5" ry="2.62469" transform="rotate(-0.745038 58.8988 25.0334)" fill="#EC1AFF"/>
<ellipse cx="59.4682" cy="68.8136" rx="2.5" ry="2.62469" transform="rotate(-0.745038 59.4682 68.8136)" fill="#EC1AFF"/>
<ellipse cx="96.2858" cy="24.547" rx="2.5" ry="2.62469" transform="rotate(-0.745038 96.2858 24.547)" fill="#EC1AFF"/>
<ellipse cx="96.8551" cy="68.3273" rx="2.5" ry="2.62469" transform="rotate(-0.745038 96.8551 68.3273)" fill="#EC1AFF"/>
</svg>
