<svg width="99" height="72" viewBox="0 0 99 72" fill="none" xmlns="http://www.w3.org/2000/svg">
<ellipse cx="2.77209" cy="3.11688" rx="2.5" ry="2.62469" fill="#F73C3C"/>
<ellipse cx="2.77209" cy="46.9011" rx="2.5" ry="2.62469" fill="#F73C3C"/>
<ellipse cx="40.1621" cy="3.11688" rx="2.5" ry="2.62469" fill="#F73C3C"/>
<ellipse cx="40.1621" cy="46.9011" rx="2.5" ry="2.62469" fill="#F73C3C"/>
<ellipse cx="77.5521" cy="3.11688" rx="2.5" ry="2.62469" fill="#F73C3C"/>
<ellipse cx="77.5521" cy="46.9011" rx="2.5" ry="2.62469" fill="#F73C3C"/>
<ellipse cx="2.77209" cy="25.0095" rx="2.5" ry="2.62469" fill="#F73C3C"/>
<ellipse cx="2.77209" cy="68.7927" rx="2.5" ry="2.62469" fill="#F73C3C"/>
<ellipse cx="40.1621" cy="25.0095" rx="2.5" ry="2.62469" fill="#F73C3C"/>
<ellipse cx="40.1621" cy="68.7927" rx="2.5" ry="2.62469" fill="#F73C3C"/>
<ellipse cx="77.5521" cy="25.0095" rx="2.5" ry="2.62469" fill="#F73C3C"/>
<ellipse cx="77.5521" cy="68.7927" rx="2.5" ry="2.62469" fill="#F73C3C"/>
<ellipse cx="21.4671" cy="3.11688" rx="2.5" ry="2.62469" fill="#F73C3C"/>
<ellipse cx="21.4671" cy="46.9011" rx="2.5" ry="2.62469" fill="#F73C3C"/>
<ellipse cx="58.8571" cy="3.11688" rx="2.5" ry="2.62469" fill="#F73C3C"/>
<ellipse cx="58.8571" cy="46.9011" rx="2.5" ry="2.62469" fill="#F73C3C"/>
<ellipse cx="96.2472" cy="3.11688" rx="2.5" ry="2.62469" fill="#F73C3C"/>
<ellipse cx="96.2472" cy="46.9011" rx="2.5" ry="2.62469" fill="#F73C3C"/>
<ellipse cx="21.4671" cy="25.0095" rx="2.5" ry="2.62469" fill="#F73C3C"/>
<ellipse cx="21.4671" cy="68.7927" rx="2.5" ry="2.62469" fill="#F73C3C"/>
<ellipse cx="58.8571" cy="25.0095" rx="2.5" ry="2.62469" fill="#F73C3C"/>
<ellipse cx="58.8571" cy="68.7927" rx="2.5" ry="2.62469" fill="#F73C3C"/>
<ellipse cx="96.2472" cy="25.0095" rx="2.5" ry="2.62469" fill="#F73C3C"/>
<ellipse cx="96.2472" cy="68.7927" rx="2.5" ry="2.62469" fill="#F73C3C"/>
</svg>
