<svg width="54" height="50" viewBox="0 0 54 50" fill="none" xmlns="http://www.w3.org/2000/svg">
<path d="M33.266 1.87328L45.5366 23.1265C46.2057 24.2858 46.2057 25.7139 45.5366 26.8731L33.266 48.1264C32.5968 49.2856 31.36 49.9996 30.0215 49.9996H37.2123C38.5508 49.9996 39.7876 49.2856 40.4568 48.1264L52.7274 26.8731C53.3965 25.7139 53.3965 24.2858 52.7274 23.1265L40.4568 1.87328C39.7876 0.714055 38.5506 0 37.2123 0H30.0215C31.36 0 32.5968 0.714055 33.266 1.87328Z" fill="#39435A"/>
<path d="M33.266 1.87328L33.8127 2.82029C34.742 2.83387 35.7073 2.91022 36.6924 3.05503C38.6527 3.3434 40.4599 3.86902 42.0038 4.55322L40.4565 1.87328C39.7876 0.714055 38.5508 0 37.2123 0H30.0215C31.36 0 32.5968 0.714055 33.266 1.87328Z" fill="#2C374C"/>
<path d="M19.4236 1.87328L31.6941 23.1265C32.3633 24.2858 32.3633 25.7139 31.6941 26.8731L19.4236 48.1264C18.7544 49.2856 17.5176 49.9996 16.1791 49.9996H23.3699C24.7084 49.9996 25.9452 49.2856 26.6144 48.1264L38.8849 26.8731C39.5541 25.7139 39.5541 24.2858 38.8849 23.1265L26.6144 1.87328C25.9451 0.714055 24.7082 0 23.3697 0H16.1791C17.5174 0 18.7543 0.714055 19.4236 1.87328Z" fill="#39435A"/>
<path d="M19.9632 48.1264L7.69268 26.8731C7.0235 25.7139 7.0235 24.2858 7.69268 23.1265L19.9632 1.87328C20.6324 0.714055 21.8692 0 23.2077 0H16.017C14.6784 0 13.4416 0.714055 12.7724 1.87328L0.501886 23.1265C-0.167295 24.2858 -0.167295 25.7139 0.501886 26.8731L12.7724 48.1264C13.4416 49.2856 14.6784 49.9996 16.017 49.9996H23.2077C21.8692 49.9996 20.6324 49.2856 19.9632 48.1264Z" fill="#435F94"/>
<path d="M27.0524 48.126L14.7819 26.8727C14.1127 25.7135 14.1127 24.2854 14.7819 23.1262L27.0524 1.87292C27.7216 0.714056 28.9584 0 30.297 0H23.1062C21.7676 0 20.5308 0.714055 19.8617 1.87328L7.59112 23.1265C6.92194 24.2858 6.92194 25.7139 7.59112 26.8731L19.8617 48.1264C20.5308 49.2856 21.7676 49.9996 23.1062 49.9996H30.297C28.9584 49.9993 27.7216 49.2852 27.0524 48.126Z" fill="#377DFF"/>
<path d="M34.2789 48.126L22.0084 26.8727C21.3392 25.7135 21.3392 24.2854 22.0084 23.1262L34.2789 1.87292C34.9481 0.714056 36.1849 0 37.5234 0H30.3326C28.9941 0 27.7573 0.714055 27.0881 1.87328L14.8176 23.1265C14.1484 24.2858 14.1484 25.7139 14.8176 26.8731L27.0881 48.1264C27.7573 49.2856 28.9941 49.9996 30.3326 49.9996H37.5234C36.1849 49.9993 34.9481 49.2852 34.2789 48.126Z" fill="#37DBFF"/>
</svg>
