<svg width="44" height="40" viewBox="0 0 44 40" fill="none" xmlns="http://www.w3.org/2000/svg">
<g clip-path="url(#clip0_426_171)">
<path d="M43.5181 29.1995C43.4651 29.0951 43.4157 29.0085 43.3698 28.9391C42.6108 27.6892 41.1602 26.155 39.0191 24.3361L38.9738 24.2945L38.9512 24.2741L38.9283 24.2531H38.9053C37.9335 23.4062 37.3182 22.8367 37.0605 22.5451C36.5889 21.9897 36.4833 21.4275 36.741 20.8579C36.9231 20.4275 37.607 19.5186 38.7911 18.13C39.414 17.394 39.9073 16.8042 40.2716 16.3598C42.899 13.1663 44.038 11.1256 43.6886 10.2369L43.5529 10.0292C43.4617 9.90419 43.2263 9.78981 42.8471 9.6855C42.467 9.5814 41.9812 9.56419 41.3888 9.63356L34.8287 9.67499C34.7224 9.64056 34.5707 9.64377 34.373 9.6855C34.1755 9.72722 34.0767 9.74816 34.0767 9.74816L33.9625 9.80031L33.8719 9.86297C33.796 9.9044 33.7124 9.97728 33.6212 10.0814C33.5305 10.1852 33.4546 10.3071 33.394 10.4459C32.6798 12.1259 31.8677 13.6878 30.9564 15.1317C30.3945 15.9927 29.8784 16.7388 29.4071 17.3706C28.9365 18.0022 28.5416 18.4675 28.223 18.7658C27.9039 19.0643 27.6158 19.3035 27.3572 19.4842C27.0989 19.665 26.9018 19.7413 26.7653 19.7134C26.6284 19.6855 26.4996 19.6577 26.3776 19.63C26.1651 19.505 25.9942 19.335 25.8654 19.1198C25.736 18.9046 25.6488 18.6337 25.6033 18.3075C25.558 17.981 25.5312 17.7001 25.5235 17.464C25.5164 17.2282 25.5197 16.8946 25.5351 16.4642C25.5509 16.0336 25.558 15.7423 25.558 15.5895C25.558 15.0618 25.5692 14.4891 25.5918 13.8713C25.6148 13.2535 25.6334 12.7639 25.6489 12.4033C25.6644 12.0423 25.6716 11.6603 25.6716 11.2577C25.6716 10.855 25.6448 10.5392 25.5918 10.3101C25.5395 10.0811 25.4591 9.85896 25.3533 9.64355C25.2467 9.42836 25.0908 9.2619 24.8863 9.14373C24.6813 9.02571 24.4265 8.93205 24.1232 8.86246C23.3183 8.69592 22.2933 8.60584 21.0478 8.59183C18.2234 8.56411 16.4085 8.73086 15.6037 9.09187C15.2848 9.2444 14.9962 9.4528 14.7382 9.71642C14.4648 10.022 14.4266 10.1887 14.624 10.2162C15.5353 10.341 16.1804 10.6395 16.5601 11.1116L16.697 11.3617C16.8034 11.5422 16.9097 11.8617 17.016 12.3198C17.1222 12.7779 17.1907 13.2846 17.2209 13.8397C17.2967 14.8534 17.2967 15.7212 17.2209 16.4431C17.1449 17.1652 17.0731 17.7274 17.0045 18.1301C16.936 18.5327 16.8336 18.859 16.697 19.1088C16.5601 19.3587 16.4691 19.5115 16.4235 19.5669C16.3779 19.6224 16.3399 19.6573 16.3098 19.671C16.1124 19.7402 15.9071 19.7754 15.6946 19.7754C15.4819 19.7754 15.2238 19.6781 14.9202 19.4836C14.6166 19.2891 14.3015 19.022 13.975 18.6818C13.6484 18.3415 13.2801 17.866 12.87 17.2551C12.4601 16.6443 12.0349 15.9224 11.5945 15.0893L11.2301 14.4852C11.0023 14.0966 10.6912 13.5306 10.2963 12.788C9.90123 12.045 9.55202 11.3264 9.24844 10.6322C9.12709 10.3406 8.94479 10.1186 8.70184 9.9659L8.58783 9.90324C8.51204 9.8478 8.39037 9.78893 8.22346 9.7262C8.05631 9.66354 7.88191 9.6186 7.69952 9.59096L1.45813 9.63239C0.820335 9.63239 0.387589 9.76449 0.159727 10.0283L0.0685342 10.1531C0.0229777 10.2227 0 10.3337 0 10.4865C0 10.6393 0.0455565 10.8267 0.136749 11.0487C1.04788 13.0065 2.03871 14.8947 3.10925 16.7135C4.17979 18.5323 5.11006 19.9974 5.89952 21.1075C6.68914 22.2184 7.494 23.2668 8.3141 24.2523C9.13419 25.2382 9.67704 25.87 9.94264 26.1475C10.2086 26.4256 10.4174 26.6335 10.5693 26.7723L11.1388 27.272C11.5033 27.6053 12.0385 28.0045 12.7446 28.4695C13.451 28.9348 14.2329 29.3929 15.0909 29.8445C15.9491 30.2954 16.9474 30.6633 18.0865 30.9479C19.2254 31.2327 20.3339 31.347 21.4122 31.2919H24.0318C24.5631 31.2499 24.9656 31.0972 25.2392 30.8336L25.3298 30.7292C25.3907 30.6463 25.4478 30.5176 25.5005 30.3443C25.5537 30.1708 25.5802 29.9796 25.5802 29.7716C25.5647 29.1747 25.6144 28.6368 25.728 28.1578C25.8415 27.679 25.9709 27.318 26.1157 27.0749C26.2603 26.832 26.4235 26.627 26.6052 26.4608C26.7873 26.2943 26.917 26.1934 26.9931 26.1587C27.0688 26.1237 27.1292 26.1 27.1747 26.0858C27.5392 25.9748 27.9681 26.0823 28.4621 26.4089C28.9557 26.7352 29.4187 27.138 29.8518 27.6168C30.2846 28.0961 30.8046 28.6338 31.4119 29.2307C32.0197 29.8278 32.551 30.2717 33.0064 30.5637L33.4618 30.8136C33.766 30.9803 34.1608 31.1331 34.6469 31.2719C35.132 31.4106 35.5571 31.4454 35.9221 31.376L41.7533 31.2928C42.33 31.2928 42.7788 31.2055 43.0971 31.0323C43.4161 30.8587 43.6056 30.6676 43.6667 30.4596C43.7277 30.2514 43.7309 30.0152 43.6783 29.7511C43.6243 29.4877 43.571 29.3036 43.5181 29.1995Z" fill="white"/>
</g>
<defs>
<clipPath id="clip0_426_171">
<rect width="43.75" height="40" fill="white"/>
</clipPath>
</defs>
</svg>
