<svg width="18" height="32" viewBox="0 0 18 32" fill="none" xmlns="http://www.w3.org/2000/svg">
<path d="M12.6668 0.791992C10.6225 0.791992 8.66183 1.60413 7.21616 3.04971C5.77066 4.49531 4.9585 6.45594 4.9585 8.50032V12.792H0.833496C0.626396 12.792 0.458496 12.9598 0.458496 13.167V18.8337C0.458496 19.0408 0.626396 19.2087 0.833496 19.2087H4.9585V30.8337C4.9585 31.0408 5.1264 31.2087 5.3335 31.2087H11.0002C11.2073 31.2087 11.3752 31.0408 11.3752 30.8337V19.2087H15.5367C15.7088 19.2087 15.8588 19.0915 15.9005 18.9247L17.3172 13.258C17.3763 13.0213 17.1973 12.792 16.9533 12.792H11.3752V8.50032C11.3752 8.15776 11.5113 7.82921 11.7535 7.58698C11.9957 7.34474 12.3243 7.20866 12.6668 7.20866H17.0002C17.2073 7.20866 17.3752 7.04076 17.3752 6.83366V1.16699C17.3752 0.959892 17.2073 0.791992 17.0002 0.791992H12.6668Z" fill="white"/>
</svg>
