<svg width="34" height="30" viewBox="0 0 34 30" fill="none" xmlns="http://www.w3.org/2000/svg">
<path fill-rule="evenodd" clip-rule="evenodd" d="M28.8052 27.9834L28.8063 27.9804L28.8353 27.9079L33.8333 2.70954V2.62769C33.8333 1.99986 33.6013 1.45176 33.0965 1.12299C32.6546 0.835223 32.1468 0.814739 31.7907 0.841772C31.4138 0.870356 31.0587 0.964389 30.8128 1.04266C30.6863 1.08292 30.5805 1.12171 30.5047 1.15106C30.4667 1.16579 30.4358 1.17829 30.4135 1.18759L30.3915 1.19686L2.52512 12.1284L2.51745 12.1311C2.5024 12.1366 2.4825 12.1441 2.45845 12.1534C2.41053 12.1721 2.3453 12.1988 2.26867 12.2336C2.1182 12.3018 1.9103 12.4069 1.69947 12.5513C1.34138 12.7966 0.659518 13.3771 0.774651 14.2974C0.870018 15.0598 1.39553 15.5439 1.74982 15.7946C1.93972 15.9291 2.12142 16.0259 2.25447 16.0893C2.32187 16.1214 2.37913 16.1459 2.42178 16.1633C2.44317 16.1719 2.46103 16.1789 2.47487 16.1843L2.49258 16.1908L2.5039 16.1951L7.3793 17.8364C7.36285 18.1423 7.39318 18.4541 7.4743 18.7619L9.91645 28.0259C10.206 29.1243 11.1997 29.8894 12.3357 29.8886C13.3539 29.8879 14.2569 29.2719 14.6406 28.3529L18.4533 24.2761L25.0017 29.2964L25.0948 29.3371C25.6897 29.5968 26.2457 29.6789 26.7538 29.6096C27.2613 29.5403 27.6645 29.3274 27.9675 29.0851C28.2656 28.8466 28.4698 28.5774 28.5983 28.3748C28.6637 28.2718 28.7123 28.1813 28.746 28.1131C28.763 28.0789 28.7763 28.0501 28.7863 28.0274L28.799 27.9984L28.8035 27.9878L28.8052 27.9834ZM9.89163 18.1246C9.83613 17.9141 9.92327 17.6918 10.1071 17.5751L26.6438 7.07354C26.6438 7.07354 27.6165 6.48304 27.5817 7.07354C27.5817 7.07354 27.7553 7.17781 27.234 7.66402C26.7397 8.12582 15.448 19.0276 14.3054 20.1308C14.2394 20.1944 14.2 20.2674 14.1768 20.3561L12.3338 27.3886L9.89163 18.1246Z" fill="white"/>
</svg>
