<svg width="26" height="29" viewBox="0 0 26 29" fill="none" xmlns="http://www.w3.org/2000/svg">
<path d="M9.32249 15.2356C7.04964 15.2356 5.21345 17.0718 5.24704 19.3223C5.26943 20.7666 6.06437 22.0206 7.23438 22.7204C6.83691 22.1102 6.60179 21.388 6.59059 20.6099C6.557 18.3594 8.39319 16.5232 10.666 16.5232C11.1139 16.5232 11.545 16.596 11.948 16.7247V12.2182C11.5282 12.1566 11.0971 12.123 10.666 12.123C10.6437 12.123 10.6269 12.123 10.6045 12.123V15.4372C10.2014 15.3084 9.77034 15.2356 9.32249 15.2356Z" fill="white"/>
<path d="M19.1489 1.72168H19.1153H17.9509C18.2868 3.40672 19.2329 4.87344 20.5541 5.86991C19.6864 4.72229 19.1601 3.28916 19.1489 1.72168Z" fill="white"/>
<path d="M26.0008 8.57921C25.5585 8.57921 25.1331 8.53443 24.7132 8.45605L17.8275 9.34056L10.6059 27.5961C10.186 27.6577 9.75496 27.6913 9.3239 27.6913C7.40933 27.6913 5.58434 27.0699 4.10083 25.9223C4.26877 26.1238 4.44791 26.3197 4.64385 26.5101C6.25612 28.0999 8.39461 28.9789 10.6731 28.9789C11.1041 28.9789 11.5352 28.9453 11.955 28.8837C13.7464 28.6206 15.3979 27.7976 16.7023 26.5101C18.3033 24.9258 19.1878 22.8265 19.199 20.5872L19.1151 10.6281C19.8764 11.2159 20.7105 11.7086 21.6118 12.0837C23.0058 12.6715 24.4837 12.9738 26.0008 12.9738" fill="white"/>
<path d="M4.62603 14.6025C6.2215 13.0182 8.3432 12.1393 10.6049 12.1225V10.9301C10.185 10.8685 9.75393 10.835 9.32288 10.835C7.03883 10.835 4.89474 11.7139 3.28248 13.3149C1.6982 14.888 0.791303 17.0377 0.796901 19.2714C0.796901 21.5218 1.68701 23.6323 3.29367 25.2278C3.55119 25.4797 3.8143 25.7148 4.09421 25.9276C2.82903 24.4217 2.14046 22.5407 2.13486 20.5589C2.14046 18.3253 3.04176 16.1756 4.62603 14.6025Z" fill="white"/>
<path d="M24.7119 8.45548V7.25748H24.7007C23.1444 7.25748 21.7113 6.74245 20.5581 5.86914C21.5602 7.1903 23.0269 8.13078 24.7119 8.45548Z" fill="white"/>
<path d="M10.4385 24.5728C10.9703 24.6008 11.4797 24.528 11.95 24.3769C13.5734 23.845 14.7434 22.3335 14.7434 20.5533L14.749 13.8915V1.72117H17.9512C17.8672 1.30131 17.8224 0.875847 17.8168 0.433594H13.4055V12.5984L13.3999 19.2602C13.3999 21.0404 12.2299 22.5519 10.6064 23.0837C10.1362 23.2404 9.62673 23.3132 9.09491 23.2796C8.41753 23.2404 7.78495 23.0389 7.23633 22.7142C7.9249 23.7779 9.10051 24.5 10.4385 24.5728Z" fill="white"/>
<path d="M10.606 27.5963C12.3974 27.3332 14.0489 26.5103 15.3532 25.2227C16.9543 23.6384 17.8388 21.5391 17.85 19.2999L17.8276 9.34076C18.589 9.92856 19.4231 10.4212 20.3244 10.7963C21.7183 11.3841 23.1962 11.6864 24.7133 11.6864V8.45625C23.0283 8.13156 21.5616 7.19107 20.5595 5.86991C19.2384 4.87344 18.2867 3.40672 17.9564 1.72168H14.7486V13.8865L14.743 20.5482C14.743 22.3285 13.573 23.84 11.9496 24.3718C11.4793 24.5285 10.9699 24.6013 10.4381 24.5677C9.09452 24.4949 7.92451 23.7728 7.23594 22.7147C6.06593 22.0206 5.27099 20.761 5.2486 19.3167C5.21501 17.0662 7.0512 15.23 9.32405 15.23C9.7719 15.23 10.203 15.3028 10.606 15.4315V12.1174C8.34437 12.1342 6.22267 13.0131 4.6272 14.5974C3.04293 16.1705 2.13603 18.3202 2.14163 20.5482C2.14163 22.53 2.8302 24.411 4.10098 25.9169C5.59008 27.0645 7.40948 27.6859 9.32405 27.6859C9.7551 27.6915 10.1862 27.6579 10.606 27.5963Z" fill="white"/>
</svg>
