<svg width="34" height="26" viewBox="0 0 34 26" fill="none" xmlns="http://www.w3.org/2000/svg">
<path fill-rule="evenodd" clip-rule="evenodd" d="M8.64801 1.15141C14.2075 0.716458 19.7924 0.716458 25.3519 1.15141L29.0864 1.44357C31.1665 1.60631 32.8682 3.16531 33.212 5.22326C34.0724 10.3724 34.0724 15.6287 33.212 20.7779C32.8682 22.8357 31.1665 24.3947 29.0864 24.5575L25.3519 24.8497C19.7924 25.2845 14.2075 25.2845 8.64801 24.8497L4.91351 24.5575C2.83339 24.3947 1.13169 22.8357 0.787841 20.7779C-0.0725095 15.6287 -0.0725095 10.3724 0.787841 5.22326C1.13169 3.16531 2.83339 1.60631 4.91351 1.44357L8.64801 1.15141ZM13.6665 17.1174V8.88364C13.6665 8.49499 14.0905 8.25492 14.4237 8.45489L21.2854 12.5719C21.609 12.766 21.609 13.235 21.2854 13.4292L14.4237 17.5462C14.0905 17.7462 13.6665 17.506 13.6665 17.1174Z" fill="white"/>
</svg>
