<svg width="20" height="22" viewBox="0 0 20 22" fill="none" xmlns="http://www.w3.org/2000/svg">
<path fill-rule="evenodd" clip-rule="evenodd" d="M0.256348 9.95068C0.256348 4.62496 4.57369 0.307617 9.89941 0.307617C12.5623 0.307617 14.973 1.38695 16.7181 3.132C15.1094 1.52336 12.9351 0.48044 10.519 0.327242C8.8939 2.12575 7.90433 4.50947 7.90433 7.12431C7.90433 7.31936 7.90983 7.51312 7.9207 7.70545C7.29893 8.25384 6.90673 9.05646 6.90673 9.95068V10.6157H12.8921L8.52133 10.6158C9.9444 14.4968 13.6719 17.2661 18.0462 17.2661C18.5545 17.2661 19.0542 17.2287 19.5425 17.1565V21.2563H12.8921V17.2661H6.90674V21.2563H0.256348V13.9409V9.95068Z" fill="white"/>
</svg>
