<svg width="64" height="64" viewBox="0 0 64 64" fill="none" xmlns="http://www.w3.org/2000/svg">
<g opacity="0.78">
<path d="M42.6667 42.6663C48.5577 42.6663 53.3333 37.8907 53.3333 31.9997C53.3333 26.1086 48.5577 21.333 42.6667 21.333C36.7756 21.333 32 26.1086 32 31.9997C32 37.8907 36.7756 42.6663 42.6667 42.6663Z" fill="#19BCFE"/>
<path fill-rule="evenodd" clip-rule="evenodd" d="M21.3334 64.0003C24.1624 64.0003 26.8755 62.8765 28.8759 60.8761C30.8763 58.8757 32.0001 56.1626 32.0001 53.3337V42.667H21.3334C18.5044 42.667 15.7913 43.7908 13.7909 45.7912C11.7906 47.7916 10.6667 50.5047 10.6667 53.3337C10.6667 56.1626 11.7906 58.8757 13.7909 60.8761C15.7913 62.8765 18.5044 64.0003 21.3334 64.0003Z" fill="#09CF83"/>
<path fill-rule="evenodd" clip-rule="evenodd" d="M21.3334 42.6663H32.0001V21.333H21.3334C18.5044 21.333 15.7913 22.4568 13.7909 24.4572C11.7906 26.4576 10.6667 29.1707 10.6667 31.9997C10.6667 34.8287 11.7906 37.5418 13.7909 39.5421C15.7913 41.5425 18.5044 42.6663 21.3334 42.6663Z" fill="#A259FF"/>
<path fill-rule="evenodd" clip-rule="evenodd" d="M21.3334 21.3333H32.0001V0H21.3334C18.5044 0 15.7913 1.12381 13.7909 3.12419C11.7906 5.12458 10.6667 7.83769 10.6667 10.6667C10.6667 13.4956 11.7906 16.2088 13.7909 18.2091C15.7913 20.2095 18.5044 21.3333 21.3334 21.3333Z" fill="#F24E1E"/>
<path fill-rule="evenodd" clip-rule="evenodd" d="M42.6667 21.3333H32V0H42.6667C45.4956 0 48.2087 1.12381 50.2091 3.12419C52.2095 5.12458 53.3333 7.83769 53.3333 10.6667C53.3333 13.4956 52.2095 16.2088 50.2091 18.2091C48.2087 20.2095 45.4956 21.3333 42.6667 21.3333Z" fill="#FF7262"/>
</g>
</svg>
