<svg width="30" height="30" viewBox="0 0 30 30" fill="none" xmlns="http://www.w3.org/2000/svg">
<path d="M17.5 16.25H16.25V15C16.25 14.6685 16.1183 14.3505 15.8839 14.1161C15.6495 13.8817 15.3315 13.75 15 13.75C14.6685 13.75 14.3505 13.8817 14.1161 14.1161C13.8817 14.3505 13.75 14.6685 13.75 15V16.25H12.5C12.1685 16.25 11.8505 16.3817 11.6161 16.6161C11.3817 16.8505 11.25 17.1685 11.25 17.5C11.25 17.8315 11.3817 18.1495 11.6161 18.3839C11.8505 18.6183 12.1685 18.75 12.5 18.75H13.75V20C13.75 20.3315 13.8817 20.6495 14.1161 20.8839C14.3505 21.1183 14.6685 21.25 15 21.25C15.3315 21.25 15.6495 21.1183 15.8839 20.8839C16.1183 20.6495 16.25 20.3315 16.25 20V18.75H17.5C17.8315 18.75 18.1495 18.6183 18.3839 18.3839C18.6183 18.1495 18.75 17.8315 18.75 17.5C18.75 17.1685 18.6183 16.8505 18.3839 16.6161C18.1495 16.3817 17.8315 16.25 17.5 16.25Z" fill="white" fill-opacity="0.38"/>
<path d="M24.375 8.81273H15.625L12.3375 4.83773C12.2212 4.69434 12.0745 4.5785 11.9081 4.49853C11.7417 4.41856 11.5596 4.37645 11.375 4.37523H5.625C4.80826 4.36521 4.02083 4.67923 3.43512 5.24853C2.84942 5.81784 2.51317 6.59604 2.5 7.41273V22.5877C2.51317 23.4044 2.84942 24.1826 3.43512 24.7519C4.02083 25.3212 4.80826 25.6353 5.625 25.6252H24.375C25.1917 25.6353 25.9792 25.3212 26.5649 24.7519C27.1506 24.1826 27.4868 23.4044 27.5 22.5877V11.8502C27.4868 11.0335 27.1506 10.2553 26.5649 9.68603C25.9792 9.11673 25.1917 8.80271 24.375 8.81273ZM25 22.5627C24.9953 22.6394 24.9753 22.7144 24.9411 22.7832C24.9069 22.8521 24.8593 22.9134 24.801 22.9635C24.7427 23.0136 24.675 23.0515 24.6019 23.075C24.5287 23.0985 24.4515 23.1071 24.375 23.1002H5.625C5.54846 23.1071 5.47132 23.0985 5.39815 23.075C5.32498 23.0515 5.25726 23.0136 5.199 22.9635C5.14073 22.9134 5.0931 22.8521 5.05892 22.7832C5.02474 22.7144 5.00471 22.6394 5 22.5627V7.41273C5.00471 7.33603 5.02474 7.26105 5.05892 7.19222C5.0931 7.12339 5.14073 7.06211 5.199 7.012C5.25726 6.9619 5.32498 6.92398 5.39815 6.90048C5.47132 6.87699 5.54846 6.86841 5.625 6.87523H10.7875L14.0375 10.8502C14.1538 10.9936 14.3005 11.1095 14.4669 11.1894C14.6333 11.2694 14.8154 11.3115 15 11.3127H24.375C24.4515 11.3059 24.5287 11.3145 24.6019 11.338C24.675 11.3615 24.7427 11.3994 24.801 11.4495C24.8593 11.4996 24.9069 11.5609 24.9411 11.6297C24.9753 11.6985 24.9953 11.7735 25 11.8502V22.5627Z" fill="white" fill-opacity="0.38"/>
</svg>
