<svg width="65" height="64" viewBox="0 0 65 64" fill="none" xmlns="http://www.w3.org/2000/svg">
<g opacity="0.78" clip-path="url(#clip0_489_254)">
<path d="M0 4C0 1.79086 1.79086 0 4 0H61C63.2091 0 65 1.79086 65 4V59.8234C65 62.0325 63.2091 63.8234 61 63.8234H4C1.79086 63.8234 0 62.0325 0 59.8234V4Z" fill="#FF0066"/>
<path d="M22.1178 20.5386C24.1737 20.5092 25.819 18.8541 25.7992 16.8351C25.7792 14.816 24.1016 13.1925 22.0452 13.2022C19.9888 13.2119 18.3273 14.8511 18.327 16.8703C18.3287 17.3561 18.4283 17.8368 18.6201 18.2847C18.8119 18.7325 19.092 19.1387 19.4444 19.4797C19.7968 19.8207 20.2145 20.0899 20.6733 20.2717C21.1321 20.4535 21.6231 20.5443 22.1178 20.5389V20.5386Z" fill="white"/>
<path d="M14.258 40.1784C14.0429 41.0817 13.9305 42.0056 13.9229 42.9333C13.9229 46.1626 15.7063 48.3069 19.4971 48.3069C22.6405 48.3069 25.191 46.474 27.0242 43.5127L25.9034 47.9292H32.1434L35.7134 33.8881C36.6051 30.3292 38.3314 28.4835 40.9522 28.4835C43.0139 28.4835 44.2959 29.742 44.2959 31.8228C44.3061 32.4897 44.2121 33.1543 44.0176 33.7936L42.1793 40.25C41.9164 41.1391 41.7852 42.0608 41.7896 42.9866C41.7896 46.0501 43.6279 48.2969 47.473 48.2969C50.7621 48.2969 53.383 46.2187 54.8312 41.238L52.3793 40.306C51.1521 43.6453 50.0941 44.2476 49.2593 44.2476C48.4247 44.2476 47.9748 43.7016 47.9748 42.6062C47.9989 42.0314 48.0923 41.4615 48.253 40.9084L50.0393 34.6158C50.4403 33.322 50.6471 31.9777 50.653 30.6253C50.653 25.9176 47.7539 23.4619 44.2413 23.4619C40.9522 23.4619 37.6088 26.3746 35.9368 29.4409L37.1614 23.9366H27.6323L26.2934 28.7872H30.7551L28.0096 39.5708C25.8514 44.2786 21.8892 44.3551 21.3925 44.2454C20.576 44.0639 20.056 43.7602 20.056 42.7134C20.0799 41.866 20.2109 41.0248 20.446 40.2091L24.6268 23.9239H14.0397L12.7034 28.7745H17.1051L14.258 40.1784Z" fill="white"/>
</g>
<defs>
<clipPath id="clip0_489_254">
<rect width="65" height="63.8234" fill="white"/>
</clipPath>
</defs>
</svg>
