<svg width="64" height="64" viewBox="0 0 64 64" fill="none" xmlns="http://www.w3.org/2000/svg">
<g clip-path="url(#clip0_489_153)">
<path d="M36.2057 13.8971L33.1886 4.75429L10.88 0L0 12.3429L34.0114 29.7143L36.2057 13.8971Z" fill="url(#paint0_linear_489_153)"/>
<path d="M25.6 37.8513L24.96 18.8342L0 12.3428L6.12571 49.0056L25.6 48.8228V37.8513Z" fill="url(#paint1_linear_489_153)"/>
<path d="M20.2057 37.4856L21.3943 22.3998L39.4971 3.83984L55.68 6.76556L64 27.5198L55.3143 36.1141L41.1428 33.8284L32.3657 43.0627L20.2057 37.4856Z" fill="url(#paint2_linear_489_153)"/>
<path d="M39.4972 3.83984L13.5315 26.8798L18.5601 56.5027L40.1372 63.9998L64.0001 49.737L39.4972 3.83984Z" fill="url(#paint3_linear_489_153)"/>
<path d="M12.2513 12.251H51.7485V51.7481H12.2513V12.251Z" fill="black"/>
<path d="M16 44.3428H30.8114V46.8113H16V44.3428Z" fill="white"/>
<path d="M15.817 17.3711H22.4913C26.4227 17.3711 28.7999 19.6568 28.7999 23.0397V23.1311C28.7999 26.9711 25.8742 28.8911 22.1256 28.8911H19.3827V33.8282H15.817V17.3711ZM22.3084 25.5997C24.137 25.5997 25.1427 24.5025 25.1427 23.1311V23.0397C25.1427 21.394 24.0456 20.5711 22.217 20.5711H19.4742V25.5997H22.3084Z" fill="white"/>
<path d="M29.7142 31.451L31.8171 28.891C33.2799 30.0795 34.8342 30.9024 36.7542 30.9024C38.2171 30.9024 39.1314 30.3538 39.1314 29.3481V29.2567C39.1314 28.3424 38.5828 27.8853 35.8399 27.1538C32.5485 26.331 30.3542 25.4167 30.3542 22.1253V22.0338C30.3542 19.0167 32.7314 17.0967 36.1142 17.0967C38.4914 17.0967 40.5942 17.8281 42.2399 19.1995L40.3199 21.9424C38.8571 20.9367 37.3942 20.2967 36.0228 20.2967C34.6514 20.2967 33.9199 20.9367 33.9199 21.7595V21.851C33.9199 22.9481 34.6514 23.3138 37.4857 24.0453C40.7771 24.9595 42.6971 26.1481 42.6971 28.9824V29.0738C42.6971 32.3653 40.2285 34.1938 36.6628 34.1938C34.1942 34.1024 31.7257 33.1881 29.7142 31.451Z" fill="white"/>
</g>
<defs>
<linearGradient id="paint0_linear_489_153" x1="0.510171" y1="42.8306" x2="27.3801" y2="7.33806" gradientUnits="userSpaceOnUse">
<stop offset="0.016" stop-color="#765AF8"/>
<stop offset="0.382" stop-color="#B345F1"/>
<stop offset="0.758" stop-color="#FA3293"/>
<stop offset="0.941" stop-color="#FF318C"/>
</linearGradient>
<linearGradient id="paint1_linear_489_153" x1="2.496" y1="44.2321" x2="29.323" y2="8.79626" gradientUnits="userSpaceOnUse">
<stop offset="0.016" stop-color="#765AF8"/>
<stop offset="0.382" stop-color="#B345F1"/>
<stop offset="0.758" stop-color="#FA3293"/>
<stop offset="0.941" stop-color="#FF318C"/>
</linearGradient>
<linearGradient id="paint2_linear_489_153" x1="46.4978" y1="42.4273" x2="31.3362" y2="6.44373" gradientUnits="userSpaceOnUse">
<stop offset="0.183" stop-color="#765AF8"/>
<stop offset="0.238" stop-color="#8655F6"/>
<stop offset="0.345" stop-color="#9F4CF3"/>
<stop offset="0.443" stop-color="#AE47F2"/>
<stop offset="0.522" stop-color="#B345F1"/>
</linearGradient>
<linearGradient id="paint3_linear_489_153" x1="57.8433" y1="52.4241" x2="22.5811" y2="25.1573" gradientUnits="userSpaceOnUse">
<stop offset="0.016" stop-color="#765AF8"/>
<stop offset="0.382" stop-color="#B345F1"/>
</linearGradient>
<clipPath id="clip0_489_153">
<rect width="64" height="64" fill="white"/>
</clipPath>
</defs>
</svg>
