<svg width="157" height="51" viewBox="0 0 157 51" fill="none" xmlns="http://www.w3.org/2000/svg">
<g clip-path="url(#clip0_489_232)">
<path d="M152.11 31.168L156.466 34.0425C155.052 36.1037 151.671 39.6403 145.825 39.6403C138.567 39.6403 133.161 34.0804 133.161 27.0075C133.161 19.4811 138.624 14.375 145.214 14.375C151.843 14.375 155.09 19.5943 156.141 22.4121L156.714 23.8495L139.637 30.8465C140.935 33.3807 142.961 34.6666 145.825 34.6666C148.691 34.6666 150.677 33.2672 152.11 31.168ZM138.72 26.6108L150.124 21.9206C149.493 20.3511 147.621 19.2355 145.386 19.2355C142.54 19.2355 138.586 21.7318 138.72 26.6108Z" fill="white" fill-opacity="0.2"/>
<path d="M124.927 1.4964H130.428V38.4866H124.927V1.49609V1.4964Z" fill="white" fill-opacity="0.2"/>
<path d="M116.255 15.3585H121.565V37.8249C121.565 47.1479 116.006 50.9869 109.435 50.9869C103.246 50.9869 99.5214 46.8644 98.1268 43.5172L102.998 41.5124C103.876 43.5737 105.997 46.0135 109.435 46.0135C113.657 46.0135 116.255 43.4225 116.255 38.5814V36.7661H116.064C114.803 38.2788 112.396 39.6403 109.34 39.6403C102.96 39.6403 97.114 34.1372 97.114 27.0457C97.114 19.9161 102.96 14.3564 109.34 14.3564C112.377 14.3564 114.803 15.6991 116.064 17.1742H116.255V15.3588V15.3585ZM116.637 27.0457C116.637 22.5826 113.638 19.3299 109.817 19.3299C105.958 19.3299 102.711 22.5826 102.711 27.0457C102.711 31.4518 105.958 34.6478 109.817 34.6478C113.638 34.6669 116.637 31.4518 116.637 27.0457H116.637Z" fill="white" fill-opacity="0.2"/>
<path d="M66.9135 26.9511C66.9135 34.232 61.183 39.5837 54.1533 39.5837C47.1239 39.5837 41.3931 34.2132 41.3931 26.9511C41.3931 19.6326 47.1239 14.2998 54.1533 14.2998C61.183 14.2998 66.9135 19.6326 66.9135 26.9511ZM61.3357 26.9511C61.3357 22.4128 58.0118 19.292 54.1533 19.292C50.2948 19.292 46.9709 22.4128 46.9709 26.9511C46.9709 31.4519 50.2948 34.6103 54.1533 34.6103C58.0121 34.6103 61.3357 31.4519 61.3357 26.9511Z" fill="white" fill-opacity="0.2"/>
<path d="M94.7841 27.0075C94.7841 34.2884 89.0533 39.64 82.0239 39.64C74.9942 39.64 69.2637 34.2881 69.2637 27.0075C69.2637 19.689 74.9942 14.375 82.0239 14.375C89.0533 14.375 94.7841 19.6702 94.7841 27.0075ZM89.187 27.0075C89.187 22.4691 85.8634 19.3484 82.0046 19.3484C78.1461 19.3484 74.8221 22.4691 74.8221 27.0075C74.8221 31.5083 78.1461 34.6666 82.0046 34.6666C85.8824 34.6666 89.187 31.4895 89.187 27.0075Z" fill="white" fill-opacity="0.2"/>
<path d="M20.4188 34.0994C12.4149 34.0994 6.14963 27.7074 6.14963 19.7836C6.14963 11.86 12.4149 5.46804 20.4188 5.46804C24.736 5.46804 27.8877 7.15104 30.2182 9.307L34.0579 5.50598C30.8106 2.42352 26.4744 0.078125 20.4188 0.078125C9.45429 0.0784286 0.227783 8.92905 0.227783 19.7836C0.227783 30.6387 9.45429 39.489 20.4188 39.489C26.3407 39.489 30.8106 37.5601 34.3063 33.967C37.8974 30.4116 39.0052 25.4191 39.0052 21.3721C39.0052 20.105 38.8525 18.8003 38.6805 17.8358H20.4188V23.0931H33.4275C33.0454 26.3838 31.9948 28.6342 30.4475 30.1657C28.5755 32.0381 25.6149 34.0994 20.4188 34.0994Z" fill="white" fill-opacity="0.2"/>
</g>
<defs>
<clipPath id="clip0_489_232">
<rect width="157" height="51" fill="white"/>
</clipPath>
</defs>
</svg>
