<svg width="65" height="63" viewBox="0 0 65 63" fill="none" xmlns="http://www.w3.org/2000/svg">
<g opacity="0.78">
<mask id="mask0_489_405" style="mask-type:alpha" maskUnits="userSpaceOnUse" x="0" y="0" width="65" height="63">
<path d="M45.9135 62.4971C46.4286 62.6928 46.9797 62.7832 47.5322 62.7625C48.0848 62.7418 48.6271 62.6105 49.1254 62.3768L62.4557 56.1268C63.1422 55.8047 63.7215 55.3003 64.1269 54.6717C64.5323 54.043 64.7473 53.3156 64.7472 52.5731V10.1932C64.7473 9.45077 64.5323 8.72339 64.1269 8.09476C63.7215 7.46612 63.1422 6.96176 62.4557 6.6397L49.1256 0.389455C48.3724 0.0362827 47.5251 -0.0800021 46.7011 0.0566967C45.877 0.193396 45.117 0.576317 44.5261 1.15246L19.0068 23.8385L7.89074 15.6166C7.38932 15.2457 6.77047 15.0576 6.14158 15.0849C5.51268 15.1121 4.91342 15.353 4.44777 15.7658L0.882669 18.9259C-0.292917 19.9678 -0.294186 21.7699 0.879622 22.8135L10.5197 31.3831L0.879622 39.9526C-0.294186 40.9964 -0.292917 42.7983 0.882669 43.8403L4.44777 47.0002C4.91339 47.4131 5.51264 47.654 6.14153 47.6813C6.77043 47.7086 7.38929 47.5205 7.89074 47.1497L19.0068 38.9276L44.5261 61.6136C44.9207 61.9987 45.3931 62.2995 45.9135 62.4971ZM48.5703 17.061L29.2069 31.3831L48.5703 45.7051V17.061Z" fill="white"/>
</mask>
<g mask="url(#mask0_489_405)">
<path d="M62.4953 6.64891L49.1545 0.390007C48.4011 0.0365488 47.5535 -0.0799837 46.7291 0.0565353C45.9048 0.193054 45.1443 0.575875 44.553 1.15202L0.880099 39.9522C-0.294472 40.996 -0.292948 42.7978 0.883145 43.8399L4.45053 46.9998C4.91657 47.4127 5.51619 47.6537 6.14545 47.681C6.77471 47.7083 7.39394 47.5202 7.89578 47.1492L60.4879 8.27265C62.2523 6.96856 64.7865 8.19471 64.7865 10.3526V10.2017C64.7865 9.45939 64.5715 8.73217 64.1661 8.10368C63.7608 7.47518 63.1817 6.97093 62.4953 6.64891Z" fill="#0065A9"/>
<path d="M62.4953 56.1156L49.1545 62.3745C48.4011 62.7279 47.5535 62.8444 46.7292 62.7078C45.9048 62.5713 45.1443 62.1886 44.553 61.6125L0.880099 22.8123C-0.294472 21.7688 -0.292948 19.9667 0.883145 18.9248L4.45053 15.7647C4.9166 15.3518 5.51624 15.1109 6.1455 15.0836C6.77476 15.0564 7.39397 15.2446 7.89578 15.6155L60.4879 54.4918C62.2523 55.7959 64.7865 54.5698 64.7865 52.4116V52.5628C64.7865 53.3051 64.5714 54.0323 64.1661 54.6608C63.7608 55.2893 63.1816 55.7935 62.4953 56.1156Z" fill="#007ACC"/>
<path d="M49.1127 62.3796C48.359 62.7328 47.5114 62.8491 46.687 62.7125C45.8625 62.5758 45.102 62.1929 44.5106 61.6168C46.0038 63.0715 48.5574 62.0411 48.5574 59.9832V2.7888C48.5574 0.730868 46.0038 -0.299583 44.5106 1.15542C45.102 0.579226 45.8625 0.196308 46.6869 0.0596188C47.5114 -0.0770707 48.359 0.0392219 49.1127 0.392415L62.4511 6.64266C63.1379 6.96449 63.7175 7.46877 64.1231 8.09743C64.5287 8.72609 64.7439 9.45359 64.7439 10.1962V52.5763C64.7439 54.0917 63.8527 55.4732 62.4511 56.1298L49.1127 62.3798V62.3796Z" fill="#1F9CF0"/>
<path d="M45.9135 62.4963C46.4287 62.692 46.9797 62.7823 47.5322 62.7616C48.0848 62.741 48.6271 62.6097 49.1254 62.376L62.4554 56.1258C63.142 55.8038 63.7214 55.2994 64.1268 54.6708C64.5322 54.0422 64.7473 53.3147 64.7472 52.5723V10.1924C64.7473 9.44996 64.5323 8.72259 64.1269 8.09395C63.7215 7.46531 63.1422 6.96095 62.4557 6.63889L49.1251 0.388399C48.3719 0.0352825 47.5247 -0.0809714 46.7007 0.0557262C45.8767 0.192424 45.1167 0.575313 44.5259 1.1514L19.0068 23.8377L7.89074 15.6158C7.38932 15.2449 6.77047 15.0568 6.14158 15.0841C5.51268 15.1113 4.91342 15.3522 4.44777 15.765L0.882669 18.9251C-0.292917 19.967 -0.294186 21.7691 0.879622 22.8126L10.5197 31.3823L0.879622 39.9518C-0.294186 40.9956 -0.292917 42.7975 0.882669 43.8395L4.44777 46.9994C4.91339 47.4122 5.51264 47.6532 6.14153 47.6805C6.77043 47.7078 7.38929 47.5197 7.89074 47.1489L19.0068 38.9268L44.5259 61.6128C44.9205 61.9979 45.393 62.2987 45.9135 62.4963ZM48.5703 17.0599L29.2069 31.3823L48.5703 45.7043V17.0602V17.0599Z" fill="url(#paint0_linear_489_405)" fill-opacity="0.25"/>
</g>
</g>
<defs>
<linearGradient id="paint0_linear_489_405" x1="32.3737" y1="0" x2="32.3737" y2="62.7645" gradientUnits="userSpaceOnUse">
<stop stop-color="white"/>
<stop offset="1" stop-color="white" stop-opacity="0"/>
</linearGradient>
</defs>
</svg>
