<svg width="64" height="64" viewBox="0 0 64 64" fill="none" xmlns="http://www.w3.org/2000/svg">
<g opacity="0.78">
<path d="M4 24.2667C4 17.1727 4 13.6257 5.38058 10.9161C6.59498 8.53273 8.53273 6.59498 10.9161 5.38058C13.6257 4 17.1727 4 24.2667 4H39.7333C46.8273 4 50.3743 4 53.0839 5.38058C55.4673 6.59498 57.405 8.53273 58.6194 10.9161C60 13.6257 60 17.1727 60 24.2667V39.7333C60 46.8273 60 50.3743 58.6194 53.0839C57.405 55.4673 55.4673 57.405 53.0839 58.6194C50.3743 60 46.8273 60 39.7333 60H24.2667C17.1727 60 13.6257 60 10.9161 58.6194C8.53273 57.405 6.59498 55.4673 5.38058 53.0839C4 50.3743 4 46.8273 4 39.7333V24.2667Z" fill="#1E252B"/>
<path d="M19.7334 32.8003C11.9334 38.541 10.4 46.9336 10.4 53.9336C10.7556 51.8447 12.3867 46.9469 16.0667 44.0669C21.5334 39.7887 31.5333 41.1981 42.4667 33.9336C53.4001 26.6691 54.4667 17.2003 53.0667 9.93359C52.094 16.9454 48.7744 20.0012 44.2 22.7336C34.2668 28.6669 28.0668 26.6669 19.7334 32.8003Z" fill="url(#paint0_linear_489_186)"/>
<path d="M19.7334 32.8003C11.9334 38.541 10.4 46.9336 10.4 53.9336C10.7556 51.8447 12.3867 46.9469 16.0667 44.0669C21.5334 39.7887 31.5333 41.1981 42.4667 33.9336C53.4001 26.6691 54.4667 17.2003 53.0667 9.93359C52.094 16.9454 48.7744 20.0012 44.2 22.7336C34.2668 28.6669 28.0668 26.6669 19.7334 32.8003Z" fill="url(#paint1_linear_489_186)"/>
<path d="M10.4933 51.0637C10.9213 44.7387 12.975 37.7738 19.7333 32.7997C24.0777 29.6023 27.8422 28.6153 31.8582 27.5624C34.2018 26.9479 36.6311 26.311 39.3112 25.1992C38.3334 26.1331 33.6871 28.3131 30.1825 29.7697C26.6871 31.2224 23.0018 32.7541 19.9334 34.7997C13.777 38.904 11.2737 46.0448 10.4933 51.0637Z" fill="url(#paint2_linear_489_186)"/>
<path d="M10.4933 51.0637C10.9213 44.7387 12.975 37.7738 19.7333 32.7997C24.0777 29.6023 27.8422 28.6153 31.8582 27.5624C34.2018 26.9479 36.6311 26.311 39.3112 25.1992C38.3334 26.1331 33.6871 28.3131 30.1825 29.7697C26.6871 31.2224 23.0018 32.7541 19.9334 34.7997C13.777 38.904 11.2737 46.0448 10.4933 51.0637Z" fill="url(#paint3_linear_489_186)"/>
<path d="M48.4355 28.7423C47.6689 29.4932 46.8141 30.1654 45.8668 30.7338C41.6001 33.2938 37.065 34.1194 32.6522 34.9228C29.1357 35.5629 25.6969 36.1889 22.5334 37.6672C15.4006 41.0003 11.0007 47.9329 10.4002 53.9326C10.4002 53.9329 10.4001 53.9331 10.4001 53.9334C10.4001 53.9323 10.4 53.9312 10.4 53.9302C10.4001 53.4722 10.4067 53.0083 10.4212 52.5395C10.4575 51.7958 10.5344 50.9718 10.6616 50.0931C11.6033 45.1589 14.1644 38.6465 19.9334 34.8005C22.3756 33.1723 25.2084 31.8698 28.0254 30.6735C30.5027 29.8602 32.7354 29.354 34.8626 28.8717C38.2111 28.1126 41.2983 27.4126 44.6668 25.6672C51.7349 22.0046 53.5868 14.4781 53.089 10.0508C54.1458 15.6605 53.7186 22.5603 48.4355 28.7423Z" fill="url(#paint4_linear_489_186)"/>
<path d="M48.4353 28.7422C47.6687 29.493 46.814 30.1652 45.8667 30.7336C41.6 33.2936 37.0649 34.1192 32.6521 34.9225C29.1357 35.5627 25.6968 36.1887 22.5334 37.6669C18.4313 39.5838 15.2331 42.6912 13.1416 46.127C14.987 43.534 17.7983 40.6372 21.2667 39.5336C24.6512 38.4567 27.8795 38.3455 31.2333 38.2299C32.1946 38.1967 33.1662 38.1632 34.1547 38.1065C36.8189 37.1367 39.6109 35.831 42.4666 33.9336C44.9281 32.2981 46.8895 30.5509 48.4353 28.7422Z" fill="url(#paint5_linear_489_186)"/>
<path d="M48.4353 28.7422C47.6687 29.493 46.814 30.1652 45.8667 30.7336C41.6 33.2936 37.0649 34.1192 32.6521 34.9225C29.1357 35.5627 25.6968 36.1887 22.5334 37.6669C18.4313 39.5838 15.2331 42.6912 13.1416 46.127C14.987 43.534 17.7983 40.6372 21.2667 39.5336C24.6512 38.4567 27.8795 38.3455 31.2333 38.2299C32.1946 38.1967 33.1662 38.1632 34.1547 38.1065C36.8189 37.1367 39.6109 35.831 42.4666 33.9336C44.9281 32.2981 46.8895 30.5509 48.4353 28.7422Z" fill="url(#paint6_linear_489_186)"/>
<path d="M53.0889 10.0505C53.0816 10.0115 53.0741 9.97251 53.0666 9.93359C52.0939 16.9454 48.7744 20.0012 44.2 22.7336C42.4671 23.7687 40.8479 24.5623 39.3111 25.1998C38.3331 26.1337 33.687 28.3136 30.1825 29.7702L30.1819 29.7704C29.4687 30.0668 28.7476 30.3665 28.0254 30.6732C30.5027 29.8599 32.7353 29.3537 34.8625 28.8715C38.2111 28.1123 41.2982 27.4124 44.6667 25.6669C51.7349 22.0043 53.5867 14.4779 53.0889 10.0505Z" fill="url(#paint7_linear_489_186)"/>
<path d="M53.0889 10.0505C53.0816 10.0115 53.0741 9.97251 53.0666 9.93359C52.0939 16.9454 48.7744 20.0012 44.2 22.7336C42.4671 23.7687 40.8479 24.5623 39.3111 25.1998C38.3331 26.1337 33.687 28.3136 30.1825 29.7702L30.1819 29.7704C29.4687 30.0668 28.7476 30.3665 28.0254 30.6732C30.5027 29.8599 32.7353 29.3537 34.8625 28.8715C38.2111 28.1123 41.2982 27.4124 44.6667 25.6669C51.7349 22.0043 53.5867 14.4779 53.0889 10.0505Z" fill="url(#paint8_linear_489_186)"/>
</g>
<defs>
<linearGradient id="paint0_linear_489_186" x1="34.8" y1="36.4003" x2="11.7334" y2="52.9336" gradientUnits="userSpaceOnUse">
<stop stop-color="#FE5004"/>
<stop offset="0.602538" stop-color="#FFB915"/>
<stop offset="1" stop-color="#FFFC41"/>
</linearGradient>
<linearGradient id="paint1_linear_489_186" x1="25.6667" y1="37.8003" x2="25.8" y2="40.2003" gradientUnits="userSpaceOnUse">
<stop stop-color="#FD3E00"/>
<stop offset="1" stop-color="#FD4400" stop-opacity="0"/>
</linearGradient>
<linearGradient id="paint2_linear_489_186" x1="39.3333" y1="23.9998" x2="6.79999" y2="52.9331" gradientUnits="userSpaceOnUse">
<stop stop-color="#005FC6"/>
<stop offset="0.279756" stop-color="#23A4DF"/>
<stop offset="0.465158" stop-color="#3AC2B7"/>
<stop offset="0.640642" stop-color="#60EC7A"/>
<stop offset="0.818668" stop-color="#CFFDBD"/>
<stop offset="1" stop-color="#D0FCB6"/>
</linearGradient>
<linearGradient id="paint3_linear_489_186" x1="32.7333" y1="29.5331" x2="29.9333" y2="26.9998" gradientUnits="userSpaceOnUse">
<stop stop-color="#0061CB"/>
<stop offset="1" stop-color="#067EEA" stop-opacity="0"/>
</linearGradient>
<linearGradient id="paint4_linear_489_186" x1="53.2" y1="10.0005" x2="10.4" y2="53.8672" gradientUnits="userSpaceOnUse">
<stop stop-color="#8E55F1"/>
<stop offset="0.140795" stop-color="#8B48DF"/>
<stop offset="0.274905" stop-color="#E04DD9"/>
<stop offset="0.492309" stop-color="#F496C8"/>
<stop offset="0.633104" stop-color="#FAD2BA"/>
<stop offset="0.856964" stop-color="#FEF7E5"/>
<stop offset="1" stop-color="#FFF5BF"/>
</linearGradient>
<linearGradient id="paint5_linear_489_186" x1="48.9999" y1="28.3336" x2="14.0666" y2="44.1336" gradientUnits="userSpaceOnUse">
<stop stop-color="#F41A73"/>
<stop offset="0.399909" stop-color="#FC50A3"/>
<stop offset="0.584511" stop-color="#FE9485"/>
<stop offset="0.703104" stop-color="#FFAF88"/>
<stop offset="1" stop-color="#FFC385"/>
</linearGradient>
<linearGradient id="paint6_linear_489_186" x1="36.3999" y1="33.2003" x2="36.4666" y2="36.4003" gradientUnits="userSpaceOnUse">
<stop stop-color="#9B0008"/>
<stop offset="1" stop-color="#EA115A" stop-opacity="0"/>
</linearGradient>
<linearGradient id="paint7_linear_489_186" x1="53.2" y1="13.6003" x2="21.6666" y2="34.2003" gradientUnits="userSpaceOnUse">
<stop stop-color="#231283"/>
<stop offset="0.362865" stop-color="#7053C6"/>
<stop offset="0.466353" stop-color="#7272DB"/>
<stop offset="0.634311" stop-color="#399EE9"/>
<stop offset="1" stop-color="#00CFFF"/>
</linearGradient>
<linearGradient id="paint8_linear_489_186" x1="45.3333" y1="24.0003" x2="46.7333" y2="25.8003" gradientUnits="userSpaceOnUse">
<stop stop-color="#3F259D" stop-opacity="0"/>
<stop offset="1" stop-color="#412DAA"/>
</linearGradient>
</defs>
</svg>
