<svg width="65" height="64" viewBox="0 0 65 64" fill="none" xmlns="http://www.w3.org/2000/svg">
<g opacity="0.78" clip-path="url(#clip0_489_282)">
<path fill-rule="evenodd" clip-rule="evenodd" d="M13.6717 40.2197C13.6724 41.098 13.4967 41.9679 13.1546 42.7795C12.8125 43.5911 12.3108 44.3285 11.6781 44.9495C11.0454 45.5705 10.2942 46.0628 9.46751 46.3984C8.6408 46.734 7.75481 46.9062 6.86024 46.9051C5.96613 46.9055 5.08072 46.7328 4.25464 46.3969C3.42855 46.061 2.678 45.5685 2.04589 44.9476C1.41379 44.3267 0.912528 43.5895 0.570777 42.7783C0.229027 41.967 0.0534894 41.0976 0.0542014 40.2197C0.053489 39.3415 0.229116 38.4718 0.571036 37.6604C0.912955 36.849 1.41446 36.1117 2.04685 35.4908C2.67924 34.8698 3.43012 34.3774 4.25651 34.0417C5.08291 33.7059 5.96861 33.5335 6.86295 33.5342H13.6744V40.2197H13.6717ZM17.0761 40.2197C17.0754 39.3415 17.251 38.4718 17.5929 37.6604C17.9348 36.849 18.4363 36.1117 19.0687 35.4908C19.7011 34.8698 20.452 34.3774 21.2784 34.0417C22.1048 33.7059 22.9905 33.5335 23.8848 33.5342C24.7792 33.5335 25.6649 33.7059 26.4913 34.0417C27.3177 34.3774 28.0685 34.8698 28.7009 35.4908C29.3333 36.1117 29.8348 36.849 30.1767 37.6604C30.5187 38.4718 30.6943 39.3415 30.6936 40.2197V56.936C30.6943 57.8141 30.5187 58.6838 30.1767 59.4952C29.8348 60.3067 29.3333 61.0439 28.7009 61.6649C28.0685 62.2858 27.3177 62.7783 26.4913 63.114C25.6649 63.4497 24.7792 63.6222 23.8848 63.6215C22.9905 63.6222 22.1048 63.4497 21.2784 63.114C20.452 62.7783 19.7011 62.2858 19.0687 61.6649C18.4363 61.0439 17.9348 60.3067 17.5929 59.4952C17.251 58.6838 17.0754 57.8141 17.0761 56.936V40.2197Z" fill="#E01E5A"/>
<path fill-rule="evenodd" clip-rule="evenodd" d="M23.8848 13.3736C22.9902 13.3743 22.1043 13.2018 21.2777 12.8659C20.4512 12.53 19.7002 12.0373 19.0677 11.4161C18.4353 10.7949 17.9339 10.0573 17.5921 9.24554C17.2503 8.43379 17.075 7.56384 17.076 6.68547C17.0753 5.80733 17.251 4.93766 17.5929 4.12623C17.9348 3.31479 18.4363 2.57751 19.0687 1.95657C19.7011 1.33563 20.452 0.843207 21.2784 0.507479C22.1048 0.17175 22.9905 -0.00069732 23.8848 2.11916e-06C24.7791 -0.00069732 25.6648 0.17175 26.4912 0.507479C27.3176 0.843207 28.0685 1.33563 28.7009 1.95657C29.3333 2.57751 29.8348 3.31479 30.1767 4.12623C30.5186 4.93766 30.6943 5.80733 30.6935 6.68547V13.3763H23.8875L23.8848 13.3736ZM23.8848 16.7669C24.7791 16.7662 25.6648 16.9386 26.4912 17.2743C27.3176 17.6101 28.0685 18.1025 28.7009 18.7234C29.3333 19.3444 29.8348 20.0817 30.1767 20.8931C30.5186 21.7045 30.6943 22.5742 30.6935 23.4523C30.6943 24.3305 30.5186 25.2001 30.1767 26.0116C29.8348 26.823 29.3333 27.5603 28.7009 28.1812C28.0685 28.8022 27.3176 29.2946 26.4912 29.6303C25.6648 29.9661 24.7791 30.1385 23.8848 30.1378H6.80875C5.91464 30.1385 5.02916 29.9662 4.20294 29.6306C3.37672 29.295 2.62597 28.8028 1.99361 28.1822C1.36125 27.5615 0.859694 26.8246 0.517615 26.0134C0.175536 25.2023 -0.000354061 24.3329 2.15823e-06 23.455C-0.000710178 22.5769 0.174917 21.7072 0.516837 20.8958C0.858756 20.0843 1.36026 19.347 1.99265 18.7261C2.62504 18.1052 3.37592 17.6127 4.20231 17.277C5.02871 16.9413 5.91441 16.7688 6.80875 16.7695H23.8875L23.8848 16.7669Z" fill="#36C5F0"/>
<path fill-rule="evenodd" clip-rule="evenodd" d="M51.1738 23.4523C51.173 22.574 51.3488 21.7041 51.6908 20.8925C52.0329 20.0809 52.5347 19.3435 53.1674 18.7225C53.8 18.1015 54.5512 17.6092 55.3779 17.2736C56.2046 16.938 57.0906 16.7658 57.9852 16.7669C58.8795 16.7662 59.7652 16.9386 60.5916 17.2743C61.418 17.6101 62.1689 18.1025 62.8013 18.7234C63.4337 19.3444 63.9352 20.0817 64.2771 20.8931C64.619 21.7045 64.7947 22.5742 64.794 23.4523C64.7947 24.3305 64.619 25.2002 64.2771 26.0116C63.9352 26.823 63.4337 27.5603 62.8013 28.1812C62.1689 28.8022 61.418 29.2946 60.5916 29.6303C59.7652 29.9661 58.8795 30.1385 57.9852 30.1378H51.1738V23.455V23.4523ZM47.7694 23.4523C47.7701 24.3305 47.5945 25.2002 47.2525 26.0116C46.9106 26.823 46.4091 27.5603 45.7767 28.1812C45.1443 28.8022 44.3935 29.2946 43.5671 29.6303C42.7407 29.9661 41.855 30.1385 40.9606 30.1378C40.0661 30.1389 39.1801 29.9667 38.3534 29.6311C37.5266 29.2955 36.7755 28.8032 36.1428 28.1822C35.5101 27.5612 35.0084 26.8238 34.6663 26.0122C34.3242 25.2006 34.1485 24.3307 34.1492 23.4523V6.68548C34.1485 5.80711 34.3242 4.93722 34.6663 4.12561C35.0084 3.31401 35.5101 2.57661 36.1428 1.95563C36.7755 1.33465 37.5266 0.842289 38.3534 0.506717C39.1801 0.171145 40.0661 -0.00104452 40.9606 4.76684e-06C41.855 -0.000694672 42.7407 0.171753 43.5671 0.507481C44.3935 0.84321 45.1443 1.33563 45.7767 1.95657C46.4091 2.57752 46.9106 3.3148 47.2525 4.12623C47.5945 4.93766 47.7701 5.80733 47.7694 6.68548V23.455V23.4523Z" fill="#2EB67D"/>
<path fill-rule="evenodd" clip-rule="evenodd" d="M40.9606 50.2479C41.8549 50.2472 42.7407 50.4196 43.5671 50.7553C44.3934 51.0911 45.1443 51.5835 45.7767 52.2044C46.4091 52.8254 46.9106 53.5626 47.2525 54.3741C47.5944 55.1855 47.7701 56.0552 47.7694 56.9333C47.7704 57.8117 47.5951 58.6817 47.2533 59.4934C46.9115 60.3051 46.4101 61.0427 45.7777 61.664C45.1452 62.2852 44.3943 62.7778 43.5677 63.1137C42.7411 63.4496 41.8552 63.6222 40.9606 63.6215C40.066 63.6222 39.1801 63.4496 38.3535 63.1137C37.527 62.7778 36.776 62.2852 36.1436 61.664C35.5111 61.0427 35.0097 60.3051 34.6679 59.4934C34.3262 58.6817 34.1508 57.8117 34.1519 56.9333V50.2479H40.9606ZM40.9606 46.9051C40.0663 46.9058 39.1806 46.7334 38.3542 46.3976C37.5278 46.0619 36.7769 45.5695 36.1445 44.9486C35.5121 44.3276 35.0106 43.5903 34.6687 42.7789C34.3268 41.9675 34.1511 41.0978 34.1519 40.2197C34.1511 39.3415 34.3268 38.4718 34.6687 37.6604C35.0106 36.849 35.5121 36.1117 36.1445 35.4908C36.7769 34.8698 37.5278 34.3774 38.3542 34.0417C39.1806 33.7059 40.0663 33.5335 40.9606 33.5342H58.0367C58.931 33.5335 59.8167 33.7059 60.6431 34.0417C61.4695 34.3774 62.2204 34.8698 62.8528 35.4908C63.4851 36.1117 63.9867 36.849 64.3286 37.6604C64.6705 38.4718 64.8461 39.3415 64.8454 40.2197C64.8461 41.0978 64.6705 41.9675 64.3286 42.7789C63.9867 43.5903 63.4851 44.3276 62.8528 44.9486C62.2204 45.5695 61.4695 46.0619 60.6431 46.3976C59.8167 46.7334 58.931 46.9058 58.0367 46.9051H40.9606Z" fill="#ECB22E"/>
</g>
<defs>
<clipPath id="clip0_489_282">
<rect width="65" height="63.8231" fill="white"/>
</clipPath>
</defs>
</svg>
