<svg width="30" height="24" viewBox="0 0 30 24" fill="none" xmlns="http://www.w3.org/2000/svg">
<path d="M26.4495 5.99532C26.469 6.25782 26.469 6.51882 26.469 6.77982C26.469 14.7673 20.3895 23.9713 9.279 23.9713C5.856 23.9713 2.676 22.9798 0 21.2578C0.486 21.3133 0.954 21.3328 1.4595 21.3328C4.17899 21.3394 6.82147 20.43 8.961 18.7513C7.70013 18.7285 6.47786 18.3125 5.46486 17.5614C4.45185 16.8103 3.69868 15.7617 3.3105 14.5618C3.684 14.6173 4.059 14.6548 4.452 14.6548C4.9935 14.6548 5.538 14.5798 6.0435 14.4493C4.67514 14.173 3.44471 13.4313 2.56143 12.3503C1.67815 11.2694 1.19654 9.91579 1.1985 8.51982V8.44482C2.004 8.89332 2.9385 9.17382 3.9285 9.21132C3.09913 8.6602 2.41908 7.91236 1.94901 7.03451C1.47894 6.15666 1.23347 5.1761 1.2345 4.18032C1.2345 3.05832 1.533 2.02932 2.0565 1.13232C3.57471 2.99985 5.46825 4.52766 7.6145 5.61681C9.76075 6.70595 12.1118 7.33214 14.5155 7.45482C14.4225 7.00482 14.3655 6.53832 14.3655 6.07032C14.3651 5.27676 14.5211 4.49091 14.8246 3.75768C15.1281 3.02445 15.5732 2.35823 16.1343 1.7971C16.6954 1.23597 17.3616 0.790937 18.0949 0.487438C18.8281 0.183939 19.6139 0.0279267 20.4075 0.0283211C22.1475 0.0283211 23.718 0.757321 24.822 1.93632C26.1747 1.67475 27.4718 1.18095 28.656 0.476821C28.2051 1.87304 27.2606 3.05698 25.9995 3.80682C27.1992 3.66999 28.3717 3.3545 29.478 2.87082C28.6517 4.07547 27.6278 5.13184 26.4495 5.99532Z" fill="white" fill-opacity="0.78"/>
</svg>
