<svg width="64" height="64" viewBox="0 0 64 64" fill="none" xmlns="http://www.w3.org/2000/svg">
<g opacity="0.78">
<path fill-rule="evenodd" clip-rule="evenodd" d="M12.6315 40.3369L9.70197 41.3889L9.54468 49.9555L19.6858 46.314C16.2075 45.1655 13.6675 43.1449 12.6315 40.3369Z" fill="#FDBD39"/>
<path fill-rule="evenodd" clip-rule="evenodd" d="M14.1646 31.2764L4 34.9263L9.70192 41.389L12.6315 40.337C11.5986 37.5373 12.2356 34.3724 14.1646 31.2764Z" fill="#F69833"/>
<path fill-rule="evenodd" clip-rule="evenodd" d="M31.2698 18.9149C18.3262 23.5627 9.98148 33.1535 12.6315 40.3366L59.5047 23.5053C56.8546 16.3222 44.2135 14.267 31.2698 18.9149Z" fill="#FECF33"/>
<path fill-rule="evenodd" clip-rule="evenodd" d="M40.8663 44.9267C53.8099 40.2788 62.1703 30.7305 59.5046 23.5049L12.6315 40.3362C15.2971 47.5619 27.9226 49.5745 40.8663 44.9267Z" fill="#EE6723"/>
<path fill-rule="evenodd" clip-rule="evenodd" d="M59.5046 23.5049L12.6315 40.3362C13.5493 42.8241 17.0494 44.0498 21.9604 44.0498C26.7483 44.0498 32.8772 42.8857 39.2668 40.5913C52.2106 35.9434 61.3173 28.4183 59.5046 23.5049Z" fill="#F69833"/>
<path fill-rule="evenodd" clip-rule="evenodd" d="M50.1757 19.792C45.3878 19.792 39.2589 20.9561 32.8692 23.2506C19.9256 27.8984 10.8188 35.4236 12.6315 40.337L59.5047 23.5056C58.5868 21.0177 55.0867 19.792 50.1757 19.792Z" fill="#FDBD39"/>
<path fill-rule="evenodd" clip-rule="evenodd" d="M47.587 50.4091H47.5866C46.2076 50.4091 44.173 49.1846 41.5394 46.7697C38.4237 43.9127 34.8546 39.7281 31.4895 34.9869C28.1246 30.2458 25.3596 25.5058 23.7039 21.64C21.8999 17.4273 21.6427 14.837 22.9394 13.9412C23.2237 13.7449 23.5664 13.6455 23.9579 13.6455C25.0127 13.6455 27.0678 14.4174 30.8681 18.0948L30.9512 18.1752L30.94 18.2895C30.914 18.5537 30.89 18.8202 30.8687 19.0819L30.8263 19.6014L30.4535 19.2321C26.3588 15.1773 24.5563 14.7395 23.9714 14.7395C23.8046 14.7395 23.6717 14.7729 23.5765 14.8387C23.014 15.2271 22.9778 17.1298 24.7268 21.2135C26.353 25.0104 29.0778 29.6787 32.3992 34.3584C35.7209 39.0385 39.2353 43.1613 42.2953 45.9672C45.5951 48.9928 47.082 49.3195 47.5682 49.3195C47.7361 49.3195 47.8725 49.2841 47.9736 49.2142C48.567 48.8044 48.5677 46.7662 46.6173 42.3707L46.5277 42.1689L46.7237 42.0634C46.9198 41.9579 47.1094 41.8541 47.2871 41.7547L47.5219 41.6235L47.6302 41.8673C49.0131 44.9819 50.3058 48.9404 48.6107 50.1117C48.325 50.309 47.9806 50.4091 47.587 50.4091ZM47.5866 49.9286H47.587L47.5868 50.1688L47.5866 49.9286Z" fill="#EE6723"/>
<path fill-rule="evenodd" clip-rule="evenodd" d="M41.1805 44.7959L41.1608 45.0353C40.8335 49.0154 39.9719 53.8003 37.7254 53.994C37.6802 53.998 37.6333 54 37.5865 54C36.0603 54 34.6165 51.8507 33.2951 47.6117C32.0449 43.6013 31.0747 38.2167 30.5634 32.4499C30.052 26.6843 30.0596 21.2154 30.5849 17.0507C31.1575 12.5125 32.2476 10.1424 33.8247 10.0064C33.8713 10.0022 33.9197 10 33.9674 10C35.0745 10 36.7431 11.2322 38.4512 16.9717L37.3359 17.1833C36.7656 15.2653 36.144 13.7054 35.527 12.6335C34.9562 11.642 34.4013 11.096 33.9642 11.096C33.9499 11.096 33.9354 11.0966 33.9212 11.0978C33.2376 11.1568 32.242 12.7867 31.687 17.186C31.171 21.276 31.1648 26.663 31.6695 32.3546C32.1744 38.047 33.1287 43.3511 34.3565 47.2896C34.9064 49.0536 35.5095 50.5073 36.1006 51.4938C36.6458 52.4035 37.1733 52.9045 37.5861 52.9045C37.6003 52.9045 37.6145 52.9038 37.6286 52.9026C38.2826 52.8463 39.5153 51.1502 40.0341 45.1827L41.1805 44.7959Z" fill="#EE6723"/>
</g>
</svg>
